<?xml version="1.0" encoding="UTF-8"?>
<svg id="_图层_2" data-name="图层 2" xmlns="http://www.w3.org/2000/svg" viewBox="0 0 500 500">
  <defs>
    <style>
      .cls-1 {
        fill: #2e3192;
        font-family: MyriadConceptItalic-BlackSemiExt, 'Myriad Variable Concept';
        font-size: 400px;
        font-variation-settings: 'wght' 900, 'wdth' 110;
        font-weight: 800;
      }

      .cls-2 {
        fill: #fff;
      }

      .cls-2, .cls-3 {
        stroke-width: 0px;
      }

      .cls-3 {
        fill: #4fd1d9;
      }
    </style>
  </defs>
  <g id="_图层_1-2" data-name="图层 1">
    <text class="cls-1" transform="translate(97.2 334.8)"><tspan x="0" y="0">G</tspan></text>
    <g>
      <g>
        <circle class="cls-3" cx="70" cy="404.6" r="56.25"/>
        <path class="cls-2" d="M88.75,423.96v10.64h-37.5c.4-4.02,1.62-7.83,3.65-11.43,2.03-3.6,6.04-8.38,12.03-14.33,4.82-4.81,7.78-8.07,8.87-9.78,1.47-2.36,2.21-4.7,2.21-7.01,0-2.56-.64-4.52-1.92-5.89-1.28-1.37-3.05-2.06-5.31-2.06s-4.01.72-5.33,2.16c-1.32,1.44-2.08,3.83-2.28,7.17l-10.66-1.14c.63-6.3,2.63-10.82,5.98-13.57,3.35-2.74,7.54-4.11,12.57-4.11,5.5,0,9.84,1.59,12.98,4.77,3.15,3.18,4.72,7.13,4.72,11.86,0,2.69-.45,5.25-1.35,7.68-.9,2.44-2.33,4.98-4.28,7.64-1.3,1.76-3.63,4.31-7.01,7.62-3.37,3.32-5.51,5.52-6.41,6.61-.9,1.08-1.63,2.15-2.19,3.18h21.24Z"/>
      </g>
      <g>
        <circle class="cls-3" cx="190" cy="404.6" r="56.25"/>
        <path class="cls-2" d="M190,383.94c-1.34,0-2.54.43-3.58,1.3-1.05.87-1.86,2.42-2.44,4.67-.76,2.91-1.14,7.82-1.14,14.71s.34,11.63,1.02,14.21c.68,2.58,1.54,4.3,2.58,5.15,1.04.86,2.22,1.28,3.56,1.28s2.53-.43,3.58-1.3c1.05-.87,1.86-2.43,2.44-4.67.76-2.89,1.14-7.77,1.14-14.67s-.34-11.63-1.02-14.21c-.68-2.57-1.54-4.3-2.58-5.17-1.03-.87-2.22-1.3-3.56-1.3ZM190,374.6c5.59,0,9.97,2.03,13.12,6.09,3.76,4.81,5.63,12.78,5.63,23.93s-1.89,19.1-5.67,23.97c-3.13,4.01-7.48,6.01-13.08,6.01s-10.15-2.2-13.59-6.59c-3.44-4.4-5.16-12.23-5.16-23.51s1.89-19.02,5.67-23.89c3.13-4.01,7.48-6.01,13.08-6.01Z"/>
      </g>
      <g>
        <circle class="cls-3" cx="310" cy="404.6" r="56.25"/>
        <path class="cls-2" d="M328.75,423.96v10.64h-37.5c.41-4.02,1.62-7.83,3.65-11.43,2.03-3.6,6.04-8.38,12.03-14.33,4.82-4.81,7.78-8.07,8.87-9.78,1.47-2.36,2.21-4.7,2.21-7.01,0-2.56-.64-4.52-1.92-5.89-1.28-1.37-3.05-2.06-5.31-2.06s-4.01.72-5.33,2.16c-1.32,1.44-2.08,3.83-2.28,7.17l-10.66-1.14c.63-6.3,2.63-10.82,5.98-13.57,3.35-2.74,7.54-4.11,12.57-4.11,5.51,0,9.84,1.59,12.98,4.77,3.15,3.18,4.72,7.13,4.72,11.86,0,2.69-.45,5.25-1.35,7.68-.9,2.44-2.33,4.98-4.28,7.64-1.3,1.76-3.63,4.31-7.01,7.62-3.37,3.32-5.51,5.52-6.41,6.61-.9,1.08-1.63,2.15-2.19,3.18h21.24Z"/>
      </g>
      <g>
        <circle class="cls-3" cx="430" cy="404.6" r="56.25"/>
        <path class="cls-2" d="M433.12,412.51v-20.42l-14.39,20.42h14.39ZM433.12,434.6v-12.03h-25.62v-10.03l27.15-37.95h10.08v37.91h7.77v10.07h-7.77v12.03h-11.61Z"/>
      </g>
    </g>
  </g>
</svg>